# xmcd CD database file generated by Grip 3.3.1
# 
# Track frame offsets:
#       150
#       12570
#       25799
#       41960
#       57358
#       71339
#       88214
#       101022
#       116339
#       132103
# 
# Disc length: 1944 seconds
# 
# Revision: 0
# Processed by: cddbd v1.5.2PL0 Copyright (c) Steve Scherf et al.
# Submitted via: Grip 3.3.1
# 
DISCID=8507960a
DTITLE=Various Artist - Country Love #3
DYEAR=2003
DGENRE=Country
TTITLE0=Lynn Anderson - Stand By Your Man
TTITLE1=Johnny Paycheck - Good Hearted Woman
TTITLE2=Jack Greene - Red Neckin' Love Makin' Night
TTITLE3=Henson Cargill - Lucille
TTITLE4=Melba Montgomery - Help Me Make It Through The Night
TTITLE5=Mac Wiseman - Have I Told You Lately (That I Love You)
TTITLE6=Skeeter Davis - Love Me Tender
TTITLE7=Tommy Overstreet - Love Will Turn You Around
TTITLE8=Donna Fargo - I Honestly Love You
TTITLE9=Tommy Cash - True Love Ways
EXTD=
EXTT0=
EXTT1=
EXTT2=
EXTT3=
EXTT4=
EXTT5=
EXTT6=
EXTT7=
EXTT8=
EXTT9=
PLAYORDER=
